<svg width="32" height="37" viewBox="0 0 32 37" fill="none" xmlns="http://www.w3.org/2000/svg">
<path fill-rule="evenodd" clip-rule="evenodd" d="M18.9599 3.89221C19.8802 2.87403 21.1795 2.46188 22.667 2.46188H25.3337C26.8211 2.46188 28.1204 2.87403 29.0408 3.89221C29.9611 4.91039 30.3337 6.34778 30.3337 7.99338V10.9435C30.3337 12.5891 29.9611 14.0265 29.0408 15.0447C28.1204 16.0629 26.8211 16.475 25.3337 16.475H22.667C21.1795 16.475 19.8802 16.0629 18.9599 15.0447C18.0395 14.0265 17.667 12.5891 17.667 10.9435V7.99338C17.667 6.34778 18.0395 4.91039 18.9599 3.89221ZM20.3741 5.45675C19.9611 5.91364 19.667 6.68884 19.667 7.99338V10.9435C19.667 12.248 19.9611 13.0232 20.3741 13.4801C20.7871 13.937 21.4878 14.2624 22.667 14.2624H25.3337C26.5128 14.2624 27.2136 13.937 27.6266 13.4801C28.0395 13.0232 28.3337 12.248 28.3337 10.9435V7.99338C28.3337 6.68884 28.0395 5.91364 27.6266 5.45675C27.2136 4.99987 26.5128 4.67448 25.3337 4.67448H22.667C21.4878 4.67448 20.7871 4.99987 20.3741 5.45675Z" fill="#A4A4A4"/>
<path fill-rule="evenodd" clip-rule="evenodd" d="M2.95989 21.593C3.88023 20.5748 5.17951 20.1627 6.66699 20.1627H9.33366C10.8211 20.1627 12.1204 20.5748 13.0408 21.593C13.9611 22.6112 14.3337 24.0486 14.3337 25.6942V28.6443C14.3337 30.2899 13.9611 31.7273 13.0408 32.7455C12.1204 33.7636 10.8211 34.1758 9.33366 34.1758H6.66699C5.17951 34.1758 3.88023 33.7636 2.95989 32.7455C2.03954 31.7273 1.66699 30.2899 1.66699 28.6443V25.6942C1.66699 24.0486 2.03954 22.6112 2.95989 21.593ZM4.3741 23.1575C3.96111 23.6144 3.66699 24.3896 3.66699 25.6942V28.6443C3.66699 29.9488 3.96111 30.724 4.3741 31.1809C4.78709 31.6378 5.4878 31.9632 6.66699 31.9632H9.33366C10.5128 31.9632 11.2136 31.6378 11.6266 31.1809C12.0395 30.724 12.3337 29.9488 12.3337 28.6443V25.6942C12.3337 24.3896 12.0395 23.6144 11.6266 23.1575C11.2136 22.7006 10.5128 22.3753 9.33366 22.3753H6.66699C5.4878 22.3753 4.78709 22.7006 4.3741 23.1575Z" fill="#A4A4A4"/>
<path fill-rule="evenodd" clip-rule="evenodd" d="M8.00033 4.67448C5.60709 4.67448 3.66699 6.82081 3.66699 9.46844C3.66699 12.1161 5.60709 14.2624 8.00033 14.2624C10.3936 14.2624 12.3337 12.1161 12.3337 9.46844C12.3337 6.82081 10.3936 4.67448 8.00033 4.67448ZM1.66699 9.46844C1.66699 5.59883 4.50252 2.46188 8.00033 2.46188C11.4981 2.46188 14.3337 5.59883 14.3337 9.46844C14.3337 13.3381 11.4981 16.475 8.00033 16.475C4.50252 16.475 1.66699 13.3381 1.66699 9.46844Z" fill="#A4A4A4"/>
<path fill-rule="evenodd" clip-rule="evenodd" d="M24.0003 22.3753C21.6071 22.3753 19.667 24.5216 19.667 27.1692C19.667 29.8169 21.6071 31.9632 24.0003 31.9632C26.3936 31.9632 28.3337 29.8169 28.3337 27.1692C28.3337 24.5216 26.3936 22.3753 24.0003 22.3753ZM17.667 27.1692C17.667 23.2996 20.5025 20.1627 24.0003 20.1627C27.4981 20.1627 30.3337 23.2996 30.3337 27.1692C30.3337 31.0388 27.4981 34.1758 24.0003 34.1758C20.5025 34.1758 17.667 31.0388 17.667 27.1692Z" fill="#A4A4A4"/>
</svg>
