<svg width="32" height="37" viewBox="0 0 32 37" fill="none" xmlns="http://www.w3.org/2000/svg">
<path fill-rule="evenodd" clip-rule="evenodd" d="M2.47338 6.05344C3.54959 3.91735 5.6233 2.46188 8.00018 2.46188H20.0002C20.5525 2.46188 21.0002 2.95719 21.0002 3.56818V18.3188C21.0002 20.5524 19.3525 22.3753 17.3335 22.3753H16.0002C15.4479 22.3753 15.0002 21.88 15.0002 21.269C15.0002 20.658 15.4479 20.1627 16.0002 20.1627H17.3335C18.2479 20.1627 19.0002 19.3304 19.0002 18.3188V4.67448H8.00018C6.37706 4.67448 4.95747 5.66759 4.22034 7.13066C3.95146 7.66435 3.34241 7.85585 2.86 7.55838C2.37759 7.26091 2.2045 6.58713 2.47338 6.05344Z" fill="#A4A4A4"/>
<path fill-rule="evenodd" clip-rule="evenodd" d="M19.0003 7.99338C19.0003 7.38239 19.448 6.88708 20.0003 6.88708H22.4537C23.7788 6.88708 24.984 7.68066 25.6385 8.9277L25.6418 8.93399L25.6418 8.934L27.9217 13.3444C28.0987 13.6868 28.0975 14.1076 27.9186 14.4488C27.7397 14.7899 27.4102 14.9999 27.0536 14.9999H25.3337C25.1526 14.9999 25.0003 15.1684 25.0003 15.3687V19.7939C25.0003 19.9942 25.1526 20.1627 25.3337 20.1627H29.3337C29.8859 20.1627 30.3337 20.658 30.3337 21.269V25.6942C30.3337 28.7538 28.0993 31.2257 25.3337 31.2257H24.0003C23.448 31.2257 23.0003 30.7304 23.0003 30.1194C23.0003 29.1078 22.248 28.2755 21.3337 28.2755C20.4193 28.2755 19.667 29.1078 19.667 30.1194C19.667 30.7304 19.2193 31.2257 18.667 31.2257H13.3337C12.7814 31.2257 12.3337 30.7304 12.3337 30.1194C12.3337 29.1078 11.5814 28.2755 10.667 28.2755C9.75261 28.2755 9.00033 29.1078 9.00033 30.1194C9.00033 30.7304 8.55261 31.2257 8.00033 31.2257H6.66699C3.90137 31.2257 1.66699 28.7538 1.66699 25.6942C1.66699 25.0832 2.11471 24.5879 2.66699 24.5879C3.21928 24.5879 3.66699 25.0832 3.66699 25.6942C3.66699 27.5318 5.00594 29.0131 6.66699 29.0131H7.1394C7.57668 27.3139 8.99445 26.0629 10.667 26.0629C12.3395 26.0629 13.7573 27.3139 14.1946 29.0131H17.8061C18.2434 27.3139 19.6611 26.0629 21.3337 26.0629C23.0062 26.0629 24.424 27.3139 24.8612 29.0131H25.3337C26.9947 29.0131 28.3337 27.5318 28.3337 25.6942V22.3753H25.3337C24.048 22.3753 23.0003 21.2162 23.0003 19.7939V15.3687C23.0003 13.9479 24.0459 12.7897 25.3298 12.7874L23.9089 10.0387C23.9084 10.0378 23.9079 10.0369 23.9074 10.036C23.6017 9.45556 23.0476 9.09968 22.4537 9.09968H21.0003V18.3188C21.0003 20.5524 19.3526 22.3753 17.3337 22.3753H16.0003C15.448 22.3753 15.0003 21.88 15.0003 21.269C15.0003 20.658 15.448 20.1627 16.0003 20.1627H17.3337C18.248 20.1627 19.0003 19.3304 19.0003 18.3188V7.99338Z" fill="#A4A4A4"/>
<path fill-rule="evenodd" clip-rule="evenodd" d="M10.6667 28.2756C9.74619 28.2756 9 29.1011 9 30.1194C9 31.1377 9.74619 31.9633 10.6667 31.9633C11.5871 31.9633 12.3333 31.1377 12.3333 30.1194C12.3333 29.1011 11.5871 28.2756 10.6667 28.2756ZM7 30.1194C7 27.8791 8.64162 26.063 10.6667 26.063C12.6917 26.063 14.3333 27.8791 14.3333 30.1194C14.3333 32.3597 12.6917 34.1758 10.6667 34.1758C8.64162 34.1758 7 32.3597 7 30.1194Z" fill="#A4A4A4"/>
<path fill-rule="evenodd" clip-rule="evenodd" d="M21.3337 28.2755C20.4132 28.2755 19.667 29.101 19.667 30.1194C19.667 31.1377 20.4132 31.9632 21.3337 31.9632C22.2541 31.9632 23.0003 31.1377 23.0003 30.1194C23.0003 29.101 22.2541 28.2755 21.3337 28.2755ZM17.667 30.1194C17.667 27.8791 19.3086 26.0629 21.3337 26.0629C23.3587 26.0629 25.0003 27.8791 25.0003 30.1194C25.0003 32.3597 23.3587 34.1758 21.3337 34.1758C19.3086 34.1758 17.667 32.3597 17.667 30.1194Z" fill="#A4A4A4"/>
<path fill-rule="evenodd" clip-rule="evenodd" d="M25.3333 15C25.1523 15 25 15.1685 25 15.3687V19.7939C25 19.9942 25.1523 20.1627 25.3333 20.1627H28.3333V18.612L26.4723 15H25.3333ZM23 15.3687C23 13.9465 24.0477 12.7874 25.3333 12.7874H27.0533C27.4125 12.7874 27.7442 13.0006 27.9221 13.3458L30.2021 17.771C30.2881 17.9379 30.3333 18.1268 30.3333 18.3189V21.269C30.3333 21.88 29.8856 22.3753 29.3333 22.3753H25.3333C24.0477 22.3753 23 21.2162 23 19.7939V15.3687Z" fill="#A4A4A4"/>
<path fill-rule="evenodd" clip-rule="evenodd" d="M1.66699 12.4186C1.66699 11.8076 2.11471 11.3123 2.66699 11.3123H10.667C11.2193 11.3123 11.667 11.8076 11.667 12.4186C11.667 13.0296 11.2193 13.5249 10.667 13.5249H2.66699C2.11471 13.5249 1.66699 13.0296 1.66699 12.4186Z" fill="#A4A4A4"/>
<path fill-rule="evenodd" clip-rule="evenodd" d="M1.66699 16.8438C1.66699 16.2328 2.11471 15.7375 2.66699 15.7375H8.00033C8.55261 15.7375 9.00033 16.2328 9.00033 16.8438C9.00033 17.4548 8.55261 17.9501 8.00033 17.9501H2.66699C2.11471 17.9501 1.66699 17.4548 1.66699 16.8438Z" fill="#A4A4A4"/>
<path fill-rule="evenodd" clip-rule="evenodd" d="M1.66699 21.269C1.66699 20.658 2.11471 20.1627 2.66699 20.1627H5.33366C5.88594 20.1627 6.33366 20.658 6.33366 21.269C6.33366 21.88 5.88594 22.3753 5.33366 22.3753H2.66699C2.11471 22.3753 1.66699 21.88 1.66699 21.269Z" fill="#A4A4A4"/>
</svg>
