<svg width="32" height="37" viewBox="0 0 32 37" fill="none" xmlns="http://www.w3.org/2000/svg">
<path fill-rule="evenodd" clip-rule="evenodd" d="M8.34633 13.1562C6.13862 13.1562 4.33301 15.1538 4.33301 17.5962V22.1331C5.05655 21.8141 5.84415 21.6379 6.66634 21.6379C10.1653 21.6379 12.9997 24.7735 12.9997 28.6444C12.9997 29.8358 12.7261 30.9731 12.2355 31.9633H23.653C25.8607 31.9633 27.6663 29.9658 27.6663 27.5234V26.8743H26.133C24.2536 26.8743 22.4294 25.354 22.257 23.108C22.1493 21.8362 22.587 20.6481 23.3454 19.8235C24.0276 19.0538 24.9628 18.614 25.973 18.614H27.6663V17.5962C27.6663 15.1538 25.8607 13.1562 23.653 13.1562H8.34633ZM2.33301 17.5962C2.33301 13.9318 5.03404 10.9436 8.34633 10.9436H23.653C26.9653 10.9436 29.6663 13.9318 29.6663 17.5962V19.7203C29.6663 20.3313 29.2186 20.8266 28.6663 20.8266H25.973C25.4943 20.8266 25.0732 21.0319 24.7695 21.3771L24.7515 21.3969C24.3968 21.78 24.1986 22.3255 24.2485 22.9048L24.2496 22.9178L24.2496 22.9178C24.3201 23.8544 25.1342 24.6617 26.133 24.6617H28.6663C29.2186 24.6617 29.6663 25.157 29.6663 25.768V27.5234C29.6663 31.1877 26.9653 34.1759 23.653 34.1759H10.173C9.75257 34.1759 9.37704 33.885 9.23328 33.4479C9.08953 33.0108 9.20826 32.5209 9.5304 32.222C9.85433 31.9214 10.1399 31.5479 10.3626 31.1256L10.3752 31.1024C10.7723 30.3899 10.9997 29.5433 10.9997 28.6444C10.9997 25.9955 9.06072 23.8505 6.66634 23.8505C5.65096 23.8505 4.70843 24.2441 3.95632 24.9073C3.65597 25.1722 3.24505 25.2233 2.89902 25.0389C2.55299 24.8545 2.33301 24.4671 2.33301 24.0422V17.5962Z" fill="#A4A4A4"/>
<path fill-rule="evenodd" clip-rule="evenodd" d="M18.7997 6.44472C18.7997 5.25358 17.7236 4.43582 16.7274 4.85354L6.14023 9.27897C5.05121 9.73506 4.33301 10.8853 4.33301 12.1827V18.9237C4.33301 19.5347 3.88529 20.03 3.33301 20.03C2.78072 20.03 2.33301 19.5347 2.33301 18.9237V12.1827C2.33301 9.96968 3.56172 7.99264 5.43244 7.20955L16.0186 2.78458C18.3291 1.81574 20.7997 3.71219 20.7997 6.44472V12.05C20.7997 12.6609 20.352 13.1563 19.7997 13.1563C19.2474 13.1563 18.7997 12.6609 18.7997 12.05V6.44472Z" fill="#A4A4A4"/>
<path fill-rule="evenodd" clip-rule="evenodd" d="M25.9714 20.8269C25.4927 20.8269 25.0716 21.0322 24.7679 21.3773L24.7499 21.3972C24.3952 21.7803 24.197 22.3258 24.2469 22.905L24.248 22.918L24.248 22.9181C24.3185 23.8547 25.1326 24.662 26.1314 24.662H28.7218C28.9373 24.6466 29.0781 24.4602 29.0781 24.2638V21.2251C29.0781 21.0287 28.9373 20.8422 28.7218 20.8269H25.9714ZM23.3438 19.8237C24.026 19.054 24.9612 18.6143 25.9714 18.6143H28.7447C28.7566 18.6143 28.7685 18.6145 28.7804 18.615C30.0511 18.6652 31.0781 19.8027 31.0781 21.2251V24.2638C31.0781 25.6862 30.0511 26.8237 28.7804 26.8739C28.7685 26.8744 28.7566 26.8746 28.7447 26.8746H26.1314C24.252 26.8746 22.4278 25.3542 22.2554 23.1083C22.1477 21.8365 22.5854 20.6484 23.3438 19.8237Z" fill="#A4A4A4"/>
<path fill-rule="evenodd" clip-rule="evenodd" d="M8.33301 18.3189C8.33301 17.708 8.78072 17.2126 9.33301 17.2126H18.6663C19.2186 17.2126 19.6663 17.708 19.6663 18.3189C19.6663 18.9299 19.2186 19.4252 18.6663 19.4252H9.33301C8.78072 19.4252 8.33301 18.9299 8.33301 18.3189Z" fill="#A4A4A4"/>
<path fill-rule="evenodd" clip-rule="evenodd" d="M6.66634 23.8504C5.65096 23.8504 4.70843 24.2441 3.95632 24.9073L3.95458 24.9088L3.95458 24.9088C2.96101 25.781 2.33301 27.1318 2.33301 28.6444C2.33301 29.5433 2.56036 30.3899 2.95751 31.1024L2.9659 31.1174L2.96579 31.1175C3.7122 32.5057 5.08517 33.4384 6.66634 33.4384C7.76326 33.4384 8.75232 32.9958 9.50405 32.2473C9.5127 32.2387 9.52149 32.2302 9.5304 32.222C9.85433 31.9214 10.1399 31.5479 10.3626 31.1256L10.3752 31.1024C10.7723 30.3899 10.9997 29.5433 10.9997 28.6444C10.9997 25.9955 9.06072 23.8504 6.66634 23.8504ZM2.71056 23.1764C3.79832 22.2175 5.17545 21.6378 6.66634 21.6378C10.1653 21.6378 12.9997 24.7735 12.9997 28.6444C12.9997 29.9534 12.6694 31.1971 12.0839 32.2522C11.7505 32.8815 11.323 33.4435 10.8291 33.9047C9.71575 35.007 8.2566 35.651 6.66634 35.651C4.35705 35.651 2.34549 34.2859 1.25098 32.2562C0.66408 31.2002 0.333008 29.955 0.333008 28.6444C0.333008 26.4403 1.25131 24.4578 2.71056 23.1764Z" fill="#A4A4A4"/>
<path fill-rule="evenodd" clip-rule="evenodd" d="M9.48203 26.4469C9.85703 26.8955 9.83233 27.5954 9.42687 28.0103L6.58687 30.9161C6.19255 31.3196 5.58056 31.3064 5.20077 30.8862L3.88078 29.4259C3.49026 28.9939 3.49026 28.2934 3.88078 27.8614C4.27131 27.4293 4.90447 27.4293 5.295 27.8614L5.93494 28.5693L8.06889 26.3859C8.47435 25.9711 9.10704 25.9984 9.48203 26.4469Z" fill="#A4A4A4"/>
</svg>
