<svg width="123" height="30" viewBox="0 0 123 30" fill="none" xmlns="http://www.w3.org/2000/svg">
<path d="M41.2 7.2L46.624 7.176C48.528 7.16 50.016 7.6 51.088 8.496C52.16 9.392 52.696 10.656 52.696 12.288C52.696 13.6 52.344 14.664 51.64 15.48C50.952 16.296 49.96 16.848 48.664 17.136L53.368 24H49.408L45.832 18.672C45.608 18.32 45.392 17.912 45.184 17.448H44.56V24H41.2V7.2ZM46.432 14.424C47.344 14.424 48.048 14.248 48.544 13.896C49.04 13.528 49.288 13 49.288 12.312C49.288 11.64 49.04 11.128 48.544 10.776C48.048 10.408 47.344 10.224 46.432 10.224H44.56V14.424H46.432ZM54.1788 6.48H57.4188V13.248C58.0908 11.904 59.3468 11.232 61.1868 11.232C62.0828 11.232 62.8908 11.448 63.6108 11.88C64.3308 12.296 64.8988 12.896 65.3148 13.68C65.7308 14.448 65.9388 15.344 65.9388 16.368V24H62.6988V17.16C62.6988 16.12 62.4588 15.344 61.9788 14.832C61.4988 14.32 60.8428 14.064 60.0108 14.064C59.2748 14.064 58.6588 14.328 58.1628 14.856C57.6668 15.368 57.4188 16.136 57.4188 17.16V24H54.1788V6.48ZM68.4117 29.016C67.5157 29.016 66.7957 28.936 66.2517 28.776L66.7317 25.68C67.1797 25.792 67.6677 25.848 68.1957 25.848C68.7877 25.848 69.2837 25.672 69.6837 25.32C70.0997 24.984 70.4037 24.528 70.5957 23.952L70.7637 23.424L65.8197 11.52H69.7317L72.1557 18.648C72.3797 19.256 72.5557 19.92 72.6837 20.64C72.8117 19.92 72.9877 19.256 73.2117 18.648L75.6357 11.52H79.4757L73.9557 24.792C73.3797 26.152 72.6517 27.192 71.7717 27.912C70.9077 28.648 69.7877 29.016 68.4117 29.016ZM85.1568 24C83.8928 24 82.9408 23.688 82.3008 23.064C81.6608 22.44 81.3408 21.464 81.3408 20.136V14.28H79.5888V11.52H81.3408V9L84.5808 8.664V11.52H87.2208V14.28H84.5808V19.968C84.5808 20.736 84.9168 21.12 85.5888 21.12H86.9328V24H85.1568ZM88.3038 6.48H91.5438V13.248C92.2158 11.904 93.4718 11.232 95.3118 11.232C96.2078 11.232 97.0158 11.448 97.7358 11.88C98.4558 12.296 99.0238 12.896 99.4398 13.68C99.8558 14.448 100.064 15.344 100.064 16.368V24H96.8238V17.16C96.8238 16.12 96.5838 15.344 96.1038 14.832C95.6238 14.32 94.9678 14.064 94.1358 14.064C93.3998 14.064 92.7838 14.328 92.2878 14.856C91.7918 15.368 91.5438 16.136 91.5438 17.16V24H88.3038V6.48ZM101.874 11.52H105.066V13.344C105.722 11.936 106.994 11.232 108.882 11.232C109.762 11.232 110.554 11.44 111.258 11.856C111.978 12.256 112.538 12.832 112.938 13.584C113.37 12.8 113.914 12.216 114.57 11.832C115.242 11.432 116.106 11.232 117.162 11.232C118.058 11.232 118.866 11.448 119.586 11.88C120.306 12.296 120.874 12.896 121.29 13.68C121.706 14.448 121.914 15.344 121.914 16.368V24H118.674V17.16C118.674 16.12 118.45 15.344 118.002 14.832C117.554 14.32 116.946 14.064 116.178 14.064C115.362 14.064 114.73 14.296 114.282 14.76C113.85 15.224 113.634 16.024 113.634 17.16V24H110.394V17.16C110.394 16.12 110.154 15.344 109.674 14.832C109.194 14.32 108.538 14.064 107.706 14.064C106.97 14.064 106.354 14.328 105.858 14.856C105.362 15.368 105.114 16.136 105.114 17.16V24H101.874V11.52Z" fill="#121212"/>
<path fill-rule="evenodd" clip-rule="evenodd" d="M14.1497 15.7262C13.7657 23.0669 7.59189 28.9146 0 29V1C7.59189 1.08547 13.7657 6.9331 14.1497 14.2738C14.5287 7.02987 20.5459 1.2399 28 1.0064V28.9937C20.5459 28.7602 14.5287 22.9702 14.1497 15.7262Z" fill="#FF6428"/>
</svg>
